<?xml version="1.0" encoding="utf-8"?>
<!-- Generator: Adobe Illustrator 26.3.1, SVG Export Plug-In . SVG Version: 6.00 Build 0)  -->
<svg version="1.1" id="Layer_1" xmlns="http://www.w3.org/2000/svg" xmlns:xlink="http://www.w3.org/1999/xlink" x="0px" y="0px"
	 viewBox="0 0 57.2 75.7" style="enable-background:new 0 0 57.2 75.7;" xml:space="preserve">
<g>
	<path d="M56,19.1C51.5-0.1,29.6,0,28.7,0c-0.9,0-22.8-1-27.4,18.8c-5,21.3,5.7,38.9,10.9,47.3c0.3,0.5,0.6,1,0.9,1.4
		c2.4,4,6.9,7,11.9,7.8c1.1,0.2,2.2,0.3,3.3,0.3c4.5,0,9-1.6,12.8-4.7C51.6,62.4,60.4,37.9,56,19.1z M40.4,70.2
		c-4.5,3.7-9.9,5.1-15.3,4.2c-4.8-0.8-9-3.6-11.2-7.4c-0.3-0.4-0.6-0.9-0.9-1.4C8,57.3-2.6,39.9,2.3,19C4.1,11,9.1,5.5,17.1,2.8
		C21.6,1.2,25.9,1,27.7,1c0.6,0,0.9,0,0.9,0l0,0l0,0C28.9,1,50.6,0.7,55,19.3C59.3,37.7,50.7,61.8,40.4,70.2z"/>
	<path d="M28.6,4.8c-11.3,0-20.4,8.4-20.4,18.6C8.2,33.7,17.3,42,28.6,42S49,33.7,49,23.4v0C49,13.1,39.8,4.8,28.6,4.8z M48,23.4
		L48,23.4C48,33.1,39.3,41,28.6,41S9.2,33.1,9.2,23.4c0-9.7,8.7-17.6,19.4-17.6S48,13.7,48,23.4z"/>
	<path d="M23.5,23.4c0,2.8,2.3,5.1,5.1,5.1c2.8,0,5.1-2.3,5.1-5.1s-2.3-5.1-5.1-5.1C25.8,18.3,23.5,20.6,23.5,23.4z M28.6,19.3
		c2.2,0,4.1,1.8,4.1,4.1s-1.8,4.1-4.1,4.1c-2.2,0-4.1-1.8-4.1-4.1S26.3,19.3,28.6,19.3z"/>
</g>
</svg>
