<?xml version="1.0" encoding="utf-8"?>
<!-- Generator: Adobe Illustrator 26.3.1, SVG Export Plug-In . SVG Version: 6.00 Build 0)  -->
<svg version="1.1" id="Layer_1" xmlns="http://www.w3.org/2000/svg" xmlns:xlink="http://www.w3.org/1999/xlink" x="0px" y="0px"
	 viewBox="0 0 20 19.9" style="enable-background:new 0 0 20 19.9;" xml:space="preserve">
<path d="M16.1,8.8c-0.3,0-0.5,0.1-0.7,0.3s-0.3,0.4-0.3,0.7V17c0,0.3-0.1,0.5-0.3,0.7c-0.2,0.2-0.5,0.3-0.7,0.3h-11
	c-0.3,0-0.5-0.1-0.7-0.3c-0.2-0.2-0.3-0.5-0.3-0.7V6c0-0.3,0.1-0.5,0.3-0.7C2.5,5.1,2.8,5,3.1,5h7.2c0.3,0,0.5-0.1,0.7-0.3
	c0.1-0.2,0.2-0.5,0.2-0.7c0-0.3-0.1-0.5-0.3-0.7S10.5,3,10.2,3H3C2.2,3,1.4,3.3,0.9,3.9S0,5.1,0,5.9v11c0,0.8,0.3,1.5,0.9,2.1
	s1.3,0.9,2.1,0.9h11c0.8,0,1.5-0.3,2.1-0.9s0.9-1.3,0.9-2.1V9.7c0-0.3-0.1-0.5-0.3-0.7C16.5,8.8,16.4,8.8,16.1,8.8L16.1,8.8z
	 M20,0.6c-0.1-0.2-0.3-0.4-0.5-0.5C19.3,0,19.2,0,19.1,0h-6c-0.3,0-0.5,0.1-0.7,0.3S12.1,0.7,12.1,1s0.1,0.5,0.3,0.7S12.8,2,13.1,2
	h3.6L6.4,12.3c-0.1,0.1-0.2,0.2-0.2,0.3c-0.1,0.1-0.1,0.2-0.1,0.4s0,0.3,0.1,0.4c0.1,0.1,0.1,0.2,0.2,0.3s0.2,0.2,0.3,0.2
	S6.9,14,7.1,14s0.3,0,0.4-0.1c0.1-0.1,0.2-0.1,0.3-0.2L18,3.3v3.6c0,0.3,0.1,0.5,0.3,0.7c0.2,0.2,0.4,0.3,0.7,0.3s0.5-0.1,0.7-0.3
	S20,7.2,20,6.9v-6C20,0.8,20,0.7,20,0.6L20,0.6L20,0.6z"/>
</svg>
