<?xml version="1.0" encoding="utf-8"?>
<!-- Generator: Adobe Illustrator 26.3.1, SVG Export Plug-In . SVG Version: 6.00 Build 0)  -->
<svg version="1.1" id="Layer_1" xmlns="http://www.w3.org/2000/svg" xmlns:xlink="http://www.w3.org/1999/xlink" x="0px" y="0px"
	 viewBox="0 0 84.4 30" style="enable-background:new 0 0 84.4 30;" xml:space="preserve">
<style type="text/css">
	.st0{fill:#C14F96;}
</style>
<g>
	<path class="st0" d="M0,0h4.2v8.1c0,0.8-0.1,1.4-0.1,1.4h0.1C5,7.9,7.1,6.2,10,6.2c3.7,0,5.8,1.9,5.8,6.4v10.8h-4.2v-10
		c0-2-0.5-3.4-2.7-3.4c-2.1,0-3.9,1.4-4.5,3.5c-0.2,0.7-0.3,1.4-0.3,2.2v7.7H0V0L0,0z"/>
	<path class="st0" d="M27.6,6.2c4.8,0,7.5,3.5,7.5,8c0,0.5-0.1,1.6-0.1,1.6H23.3c0.3,2.9,2.5,4.4,5,4.4c2.7,0,4.8-1.8,4.8-1.8l1.6,3
		c0,0-2.6,2.4-6.8,2.4c-5.6,0-9-4-9-8.8C19,9.8,22.5,6.2,27.6,6.2L27.6,6.2z M30.8,12.9c-0.1-2.3-1.5-3.5-3.3-3.5
		c-2.1,0-3.6,1.3-4,3.5H30.8z"/>
	<path class="st0" d="M38.2,0h4.2v17.5c0,1.8,0.6,2.3,1.7,2.3c0.3,0,0.6,0,0.6,0v3.7c0,0-0.6,0.1-1.3,0.1c-2.3,0-5.2-0.6-5.2-5.4
		L38.2,0L38.2,0z"/>
	<path class="st0" d="M47.8,6.6h3.8v1.2c0,0.6-0.1,1.2-0.1,1.2h0.1c0,0,1.5-2.8,5.4-2.8c4.5,0,7.5,3.6,7.5,8.8s-3.3,8.8-7.7,8.8
		c-3.3,0-4.8-2.3-4.8-2.3H52c0,0,0.1,0.6,0.1,1.4V30h-4.2L47.8,6.6L47.8,6.6z M56.1,20.3c2.3,0,4.2-1.9,4.2-5.2s-1.7-5.3-4.2-5.3
		c-2.2,0-4.2,1.6-4.2,5.3C51.9,17.7,53.3,20.3,56.1,20.3z"/>
	<path class="st0" d="M68.7,10.2h-2.2V6.9h2.3V2h4.1v4.8h3.8v3.3h-3.8v6.5c0,2.8,2.2,3.2,3.3,3.2c0.5,0,0.8-0.1,0.8-0.1v3.7
		c0,0-0.5,0.1-1.3,0.1c-2.3,0-7-0.7-7-6.3L68.7,10.2L68.7,10.2z"/>
	<path class="st0" d="M80.2,19.2h4.2v4.2h-4.2V19.2z"/>
</g>
</svg>
