<?xml version="1.0" encoding="utf-8"?>
<!-- Generator: Adobe Illustrator 26.3.1, SVG Export Plug-In . SVG Version: 6.00 Build 0)  -->
<svg version="1.1" id="Layer_1" xmlns="http://www.w3.org/2000/svg" xmlns:xlink="http://www.w3.org/1999/xlink" x="0px" y="0px"
	 viewBox="0 0 166.4 30" style="enable-background:new 0 0 166.4 30;" xml:space="preserve">
<style type="text/css">
	.st0{clip-path:url(#SVGID_00000121254031138394517370000013495384850774820020_);}
	.st1{fill:#26898C;}
	.st2{fill:#C25097;}
</style>
<g>
	<defs>
		<rect id="SVGID_1_" width="166.8" height="30"/>
	</defs>
	<clipPath id="SVGID_00000016034987894855949610000011277128835168214928_">
		<use xlink:href="#SVGID_1_"  style="overflow:visible;"/>
	</clipPath>
	<g style="clip-path:url(#SVGID_00000016034987894855949610000011277128835168214928_);">
		<path class="st1" d="M1.9,18.7c0,0,1.9,1.9,4.7,1.9c1.2,0,2.2-0.5,2.2-1.5c0-2.6-8.3-2.2-8.3-7.7c0-3.2,2.9-5,6.5-5
			c3.7,0,5.7,1.9,5.7,1.9l-1.6,3.2c0,0-1.6-1.5-4.2-1.5c-1.1,0-2.2,0.5-2.2,1.5c0,2.4,8.3,2.1,8.3,7.6c0,2.9-2.5,5.1-6.5,5.1
			c-4.3,0-6.6-2.5-6.6-2.5L1.9,18.7z"/>
		<path class="st1" d="M17.4,10.4h-2.2V7h2.3V2h4.2V7h3.9v3.4h-3.9V17c0,2.8,2.2,3.2,3.4,3.2c0.5,0,0.8-0.1,0.8-0.1v3.7
			c0,0-0.5,0.1-1.3,0.1c-2.4,0-7.1-0.7-7.1-6.4L17.4,10.4L17.4,10.4z"/>
		<path class="st1" d="M50.2,6.7h4.1v2c0,0.6-0.1,1.2-0.1,1.2h0.1c0.8-1.7,2.9-3.6,5.6-3.6c2.7,0,4.3,1.2,5,3.5H65
			c0.9-1.8,3.2-3.5,5.8-3.5c3.6,0,5.6,2,5.6,6.5v11h-4.3V13.6c0-1.9-0.4-3.4-2.3-3.4c-2.2,0-3.6,1.7-4.1,3.9
			c-0.2,0.7-0.2,1.4-0.2,2.2v7.5h-4.3V13.6c0-1.8-0.3-3.4-2.3-3.4c-2.2,0-3.7,1.7-4.2,3.9c-0.2,0.6-0.2,1.4-0.2,2.2v7.5h-4.3
			L50.2,6.7L50.2,6.7z"/>
		<path class="st1" d="M89.6,13.1h0.6v-0.2c0-2.2-1.4-3-3.3-3c-2.5,0-4.7,1.6-4.7,1.6l-1.6-3.1c0,0,2.7-2.1,6.7-2.1
			c4.5,0,7.1,2.5,7.1,6.8v10.7h-3.9v-1.4c0-0.7,0.1-1.2,0.1-1.2h-0.1c0,0-1.3,3-5.2,3c-3.1,0-5.8-1.9-5.8-5.3
			C79.5,13.5,86.8,13.1,89.6,13.1 M86.3,20.9c2.2,0,3.9-2.4,3.9-4.5V16h-0.7c-2.2,0-5.7,0.3-5.7,2.7C83.7,19.8,84.6,20.9,86.3,20.9z
			"/>
		<path class="st1" d="M98.8,0h4.3v8.3c0,0.8-0.1,1.4-0.1,1.4h0.1c0.8-1.6,2.9-3.4,5.9-3.4c3.8,0,5.9,2,5.9,6.5v11h-4.2V13.7
			c0-2.1-0.5-3.5-2.7-3.5c-2.2,0-4,1.5-4.6,3.6c-0.2,0.7-0.3,1.4-0.3,2.2v7.9h-4.3V0z"/>
		<path class="st1" d="M119.2,6.7h4.3v10.1c0,2.1,0.5,3.5,2.7,3.5c3.1,0,4.8-2.7,4.8-5.8V6.7h4.3v17.1H131v-1.9
			c0-0.7,0.1-1.2,0.1-1.2H131c-0.8,1.8-3,3.6-5.9,3.6c-3.7,0-5.9-1.8-5.9-6.5L119.2,6.7L119.2,6.7z"/>
		<path class="st1" d="M139.6,0h4.2v17.9c0,1.9,0.6,2.3,1.7,2.3c0.3,0,0.6,0,0.6,0v3.7c0,0-0.6,0.1-1.3,0.1c-2.3,0-5.3-0.6-5.3-5.5
			V0z"/>
		<path class="st1" d="M149.4,6.7h3.9V8c0,0.6-0.1,1.2-0.1,1.2h0.1c0,0,1.5-2.8,5.5-2.8c4.6,0,7.6,3.7,7.6,9s-3.3,9-7.8,9
			c-3.4,0-4.9-2.4-4.9-2.4h-0.1c0,0,0.1,0.6,0.1,1.5v7.2h-4.3L149.4,6.7L149.4,6.7z M157.8,20.6c2.3,0,4.3-1.9,4.3-5.3
			s-1.7-5.4-4.3-5.4c-2.2,0-4.3,1.6-4.3,5.4C153.5,18,154.9,20.6,157.8,20.6"/>
		<path class="st2" d="M31.8,15.3c0-3.1,2.5-5.6,5.6-5.6c3.1,0,5.6,2.5,5.6,5.6s-2.5,5.6-5.6,5.6C34.3,20.9,31.8,18.4,31.8,15.3z"/>
	</g>
</g>
</svg>
